<?xml version="1.0" encoding="utf-8"?>
<!-- Generator: Adobe Illustrator 26.4.1, SVG Export Plug-In . SVG Version: 6.00 Build 0)  -->
<svg version="1.1" id="Layer_1" xmlns="http://www.w3.org/2000/svg" xmlns:xlink="http://www.w3.org/1999/xlink" x="0px" y="0px"
	 viewBox="0 0 50 50" style="enable-background:new 0 0 50 50;" xml:space="preserve">
<style type="text/css">
	.st0{fill:#FFFFFF;}
	.st1{fill:#F9A31A;}
	.st2{fill:#211435;}
	.st3{fill:none;stroke:#1F140F;stroke-width:0.25;stroke-miterlimit:10;}
	.st4{fill:#FFE000;}
	.st5{fill:#615578;}
	.st6{fill:#090909;}
	.st7{opacity:0.59;}
	.st8{opacity:0.26;}
	.st9{opacity:0.76;fill:none;stroke:#1F140F;stroke-width:0.25;stroke-miterlimit:10;}
	.st10{display:none;}
	.st11{display:inline;}
	.st12{fill:#231F20;}
</style>
<g>
	<g id="XMLID_6_">
		<g>
			<g id="XMLID_00000147191640747952577360000002579647116834750902_">
				<rect x="7.86" y="0.18" class="st0" width="36.28" height="47.91"/>
			</g>
			<g>
				<g id="XMLID_00000130613182046729309970000011735292231377241494_">
					<g id="XMLID_00000060003689584741075230000013748164771327076497_">
						<g id="XMLID_00000142892842664570311690000009925318970988834489_">
							<path class="st1" d="M36.21,37.2H15.39v0c0-5.29,4.29-9.58,9.58-9.58h1.67C31.92,27.63,36.21,31.92,36.21,37.2L36.21,37.2z"
								/>
						</g>
						<path id="XMLID_00000042702358639151274410000008209302223954443150_" class="st1" d="M32.25,31.67H19.34
							c-3.49,0-6.33,2.83-6.33,6.33v0h25.56v0C38.58,34.5,35.75,31.67,32.25,31.67z"/>
						<g id="XMLID_00000062178798936528661460000005102946753272807102_">
							<path class="st2" d="M17.85,33.89L17.85,33.89c0-2.15,1.74-3.89,3.89-3.89h7.86c2.15,0,3.89,1.74,3.89,3.89l0,0
								c0,0.81-0.66,1.47-1.47,1.47H19.32C18.51,35.36,17.85,34.7,17.85,33.89z"/>
						</g>
						<g id="XMLID_00000098935039482790728320000016003583696498252705_">
							<path class="st0" d="M22.43,33.91v-2.54h-0.91v-0.29h2.16v0.29h-0.9v2.54H22.43z"/>
							<path class="st0" d="M23.85,33.91l0.81-2.84h0.75l0.81,2.84h-0.35l-0.21-0.72h-1.26l-0.21,0.72H23.85z M24.48,32.9h1.11
								l-0.44-1.55h-0.22L24.48,32.9z"/>
							<path class="st0" d="M26.42,33.91l0.92-1.39l-0.92-1.45h0.39l0.74,1.2l0.75-1.2h0.37l-0.91,1.44l0.91,1.4h-0.39l-0.74-1.17
								l-0.75,1.17H26.42z"/>
							<path class="st0" d="M29.14,33.91v-2.84h0.34v2.84H29.14z"/>
						</g>
						<g id="XMLID_00000083061842330918798470000002182461903773922734_">
							<g id="XMLID_00000156589603593683357350000009276289254168276364_">
								<g id="XMLID_00000168807756694280639550000004335379154202396855_">
									<rect x="13.02" y="36.43" class="st2" width="1.16" height="1.16"/>
								</g>
								
									<rect id="XMLID_00000113313554824670104220000002123084128250686353_" x="13.02" y="37.59" class="st1" width="1.16" height="1.16"/>
								<g id="XMLID_00000066499675065751438110000012672250536271167149_">
									<rect x="14.18" y="37.59" class="st2" width="1.16" height="1.16"/>
								</g>
								
									<rect id="XMLID_00000109017766333080749690000003508737046984371855_" x="14.18" y="36.43" class="st1" width="1.16" height="1.16"/>
							</g>
							<g id="XMLID_00000090254172111647276690000005547150456640090777_">
								<g id="XMLID_00000087378923733297557750000009310704814101240225_">
									<rect x="15.34" y="36.43" class="st2" width="1.16" height="1.16"/>
								</g>
								
									<rect id="XMLID_00000110437512091857330280000001907034335435113867_" x="15.34" y="37.59" class="st1" width="1.16" height="1.16"/>
								<g id="XMLID_00000137094351907014666900000009561093501027896709_">
									<rect x="16.5" y="37.59" class="st2" width="1.16" height="1.16"/>
								</g>
								
									<rect id="XMLID_00000047040789703675212590000000644584935081238712_" x="16.5" y="36.43" class="st1" width="1.16" height="1.16"/>
							</g>
							<g id="XMLID_00000168094273387589546950000005569474252100531607_">
								<g id="XMLID_00000076598858073724110370000001537723863338108607_">
									<rect x="17.66" y="36.43" class="st2" width="1.16" height="1.16"/>
								</g>
								
									<rect id="XMLID_00000133529732285496008040000015869651867992174469_" x="17.66" y="37.59" class="st1" width="1.16" height="1.16"/>
								<g id="XMLID_00000160877480672788784290000006714913650112928171_">
									<rect x="18.83" y="37.59" class="st2" width="1.16" height="1.16"/>
								</g>
								
									<rect id="XMLID_00000070086117778748617250000007494423285675284111_" x="18.83" y="36.43" class="st1" width="1.16" height="1.16"/>
							</g>
							<g id="XMLID_00000167386270261132524860000014023737208930687638_">
								<g id="XMLID_00000158017318571449521880000009374891274903982012_">
									<rect x="19.99" y="36.43" class="st2" width="1.16" height="1.16"/>
								</g>
								
									<rect id="XMLID_00000085217079465595267070000000236924220675379849_" x="19.99" y="37.59" class="st1" width="1.16" height="1.16"/>
								<g id="XMLID_00000098195426865070348730000008597184881085514653_">
									<rect x="21.15" y="37.59" class="st2" width="1.16" height="1.16"/>
								</g>
								
									<rect id="XMLID_00000037685063687651319470000003159058861004719795_" x="21.15" y="36.43" class="st1" width="1.16" height="1.16"/>
							</g>
							<g id="XMLID_00000044868222134266828030000008039512347778560158_">
								<g id="XMLID_00000135682055550818801320000014732419126449492904_">
									<rect x="22.31" y="36.43" class="st2" width="1.16" height="1.16"/>
								</g>
								
									<rect id="XMLID_00000176026094633113799360000000894228702539304375_" x="22.31" y="37.59" class="st1" width="1.16" height="1.16"/>
								<g id="XMLID_00000008127506992642814170000005474528433383880077_">
									<rect x="23.47" y="37.59" class="st2" width="1.16" height="1.16"/>
								</g>
								
									<rect id="XMLID_00000049198151165656525740000016998670146241543830_" x="23.47" y="36.43" class="st1" width="1.16" height="1.16"/>
							</g>
							<g id="XMLID_00000080204052968539431630000013839798570541506985_">
								<g id="XMLID_00000006686440612817297700000006692993989733692333_">
									<rect x="24.64" y="36.43" class="st2" width="1.16" height="1.16"/>
								</g>
								
									<rect id="XMLID_00000056414945406740579260000002075945567612890766_" x="24.64" y="37.59" class="st1" width="1.16" height="1.16"/>
								<g id="XMLID_00000034078761619058035080000013515250625904902274_">
									<rect x="25.8" y="37.59" class="st2" width="1.16" height="1.16"/>
								</g>
								
									<rect id="XMLID_00000147213545726828890180000004210264146913765519_" x="25.8" y="36.43" class="st1" width="1.16" height="1.16"/>
							</g>
							<g id="XMLID_00000134940079569157846140000004099935208286498698_">
								<g id="XMLID_00000134972606224950511780000016104626405450238380_">
									<rect x="26.96" y="36.43" class="st2" width="1.16" height="1.16"/>
								</g>
								
									<rect id="XMLID_00000175318428511316391570000012050706626464991110_" x="26.96" y="37.59" class="st1" width="1.16" height="1.16"/>
								<g id="XMLID_00000005224813611110273610000017738748300806288006_">
									<rect x="28.12" y="37.59" class="st2" width="1.16" height="1.16"/>
								</g>
								
									<rect id="XMLID_00000183938966930916656000000017849986765151115919_" x="28.12" y="36.43" class="st1" width="1.16" height="1.16"/>
							</g>
							<g id="XMLID_00000056407322725241288300000009267680511861445289_">
								<g id="XMLID_00000153694955842970656910000016755081317256886672_">
									<rect x="29.28" y="36.43" class="st2" width="1.16" height="1.16"/>
								</g>
								
									<rect id="XMLID_00000039819254231514937620000005024034783442488453_" x="29.28" y="37.59" class="st1" width="1.16" height="1.16"/>
								<g id="XMLID_00000175317321760377532710000004339994321514246284_">
									<rect x="30.45" y="37.59" class="st2" width="1.16" height="1.16"/>
								</g>
								
									<rect id="XMLID_00000162349445460551700410000001992929101679750791_" x="30.45" y="36.43" class="st1" width="1.16" height="1.16"/>
							</g>
							<g id="XMLID_00000155137876283084209890000011773059679720975757_">
								<g id="XMLID_00000093138659840654062750000010247215799563381393_">
									<rect x="31.61" y="36.43" class="st2" width="1.16" height="1.16"/>
								</g>
								
									<rect id="XMLID_00000128485941788098915480000003198439762528173223_" x="31.61" y="37.59" class="st1" width="1.16" height="1.16"/>
								<g id="XMLID_00000035504315980133623260000001102686906832018847_">
									<rect x="32.77" y="37.59" class="st2" width="1.16" height="1.16"/>
								</g>
								
									<rect id="XMLID_00000152979966856355057520000014430213820416085909_" x="32.77" y="36.43" class="st1" width="1.16" height="1.16"/>
							</g>
							<g id="XMLID_00000054260684737701657780000009543359855925048715_">
								<g id="XMLID_00000103256359960220218730000008046696992146116231_">
									<rect x="33.93" y="36.43" class="st2" width="1.16" height="1.16"/>
								</g>
								
									<rect id="XMLID_00000170978062743992285080000017302581219589092227_" x="33.93" y="37.59" class="st1" width="1.16" height="1.16"/>
								<g id="XMLID_00000070825171338911344540000014535246197574181534_">
									<rect x="35.09" y="37.59" class="st2" width="1.16" height="1.16"/>
								</g>
								
									<rect id="XMLID_00000039838186200639787200000015101243412204689810_" x="35.09" y="36.43" class="st1" width="1.16" height="1.16"/>
							</g>
							<g id="XMLID_00000114034322947401855120000014433863522211972276_">
								<g id="XMLID_00000098915739300361498860000007157134704567072926_">
									<rect x="36.25" y="36.43" class="st2" width="1.16" height="1.16"/>
								</g>
								
									<rect id="XMLID_00000075878648725338163190000012819819329454184596_" x="36.25" y="37.59" class="st1" width="1.16" height="1.16"/>
								<g id="XMLID_00000163048060392943619370000014687233430447659410_">
									<rect x="37.42" y="37.59" class="st2" width="1.16" height="1.16"/>
								</g>
								
									<rect id="XMLID_00000112591383336375208430000010409678273959831424_" x="37.42" y="36.43" class="st1" width="1.16" height="1.16"/>
							</g>
						</g>
					</g>
					<path id="XMLID_00000011736642167289681540000003315676199619013003_" class="st3" d="M13.02,38.75v-2.5
						c0,0-0.07-3.66,3.83-4.51c0,0,1.44-2.53,4.88-3.7c0,0,1.24-0.4,2.32-0.4c1.08,0,1.95,0,1.95,0"/>
				</g>
				<g id="XMLID_00000012447541931299248290000000504952655339346565_">
					<path class="st4" d="M7.86,39.89L7.86,39.89c1.06-0.74,2.32-1.14,3.61-1.14h28.96c1.02,0,2.02,0.25,2.92,0.72l0.79,0.42v8.2
						H7.86V39.89z"/>
				</g>
				<g id="XMLID_00000052062884299562091420000001598292508486974885_">
					<path class="st5" d="M7.86,42.55L7.86,42.55c1.06-0.74,2.32-1.14,3.61-1.14h25.37h3.59c1.02,0,2.02,0.25,2.92,0.72l0.79,0.42
						v5.54H7.86V42.55z"/>
				</g>
				<g id="XMLID_00000049907087215973561110000005304538969098544061_">
					<path id="XMLID_00000124867978604582814740000014166818149636041106_" class="st6" d="M30.66,46.92h-9.32
						c-1.2,0-2.17-0.98-2.17-2.17v0c0-1.2,0.98-2.17,2.17-2.17h9.32c1.2,0,2.17,0.98,2.17,2.17v0
						C32.83,45.94,31.86,46.92,30.66,46.92z"/>
					
						<rect id="XMLID_00000152945369035833272180000017036513686237233290_" x="25.66" y="41.41" class="st6" width="0.68" height="2.46"/>
				</g>
				<g id="XMLID_00000008858880441042166900000005274869507170557099_" class="st7">
					<polygon class="st0" points="27.77,48.08 36.84,41.41 39.44,41.41 30.19,48.1 					"/>
				</g>
				<g id="XMLID_00000167394049407987620490000000132600906079894451_" class="st8">
					<polygon class="st0" points="21.15,48.07 30.44,41.41 33.05,41.41 24.01,48.08 					"/>
				</g>
			</g>
		</g>
	</g>
	<polyline id="XMLID_331_" class="st9" points="6.03,17.57 6.03,49.82 30.45,49.82 	"/>
	<g class="st10">
		<g class="st11">
			<path class="st12" d="M10.7,4.78l0.78-2.71h0.71l0.77,2.71h-0.33l-0.2-0.69h-1.2l-0.2,0.69H10.7z M11.3,3.81h1.06l-0.42-1.48
				h-0.21L11.3,3.81z"/>
			<path class="st12" d="M13.37,2.39V2.04h0.32v0.35H13.37z M13.37,4.78V2.82h0.32v1.96H13.37z"/>
			<path class="st12" d="M14.3,5.64V2.82h0.32v0.14c0.04-0.03,0.1-0.05,0.17-0.08c0.07-0.03,0.14-0.05,0.22-0.07
				c0.08-0.02,0.15-0.03,0.22-0.03c0.18,0,0.32,0.03,0.43,0.1c0.11,0.07,0.19,0.18,0.24,0.32c0.05,0.15,0.08,0.34,0.08,0.57
				c0,0.26-0.03,0.46-0.09,0.61s-0.16,0.26-0.29,0.33c-0.13,0.07-0.31,0.1-0.52,0.1c-0.08,0-0.17-0.01-0.26-0.02
				s-0.15-0.02-0.2-0.03v0.87H14.3z M15.06,4.55c0.15,0,0.27-0.03,0.35-0.08s0.15-0.14,0.18-0.25c0.04-0.11,0.05-0.26,0.05-0.45
				c0-0.26-0.04-0.45-0.12-0.56c-0.08-0.11-0.2-0.16-0.35-0.16c-0.07,0-0.13,0.01-0.2,0.02s-0.14,0.03-0.2,0.06
				c-0.06,0.02-0.11,0.04-0.16,0.07v1.31c0.04,0.01,0.11,0.01,0.19,0.02C14.9,4.55,14.98,4.55,15.06,4.55z"/>
			<path class="st12" d="M17.28,4.82c-0.23,0-0.41-0.04-0.54-0.11c-0.13-0.08-0.22-0.19-0.27-0.35c-0.05-0.15-0.08-0.35-0.08-0.58
				c0-0.22,0.03-0.41,0.08-0.56c0.06-0.15,0.15-0.26,0.28-0.33c0.13-0.07,0.3-0.11,0.52-0.11c0.22,0,0.39,0.04,0.52,0.11
				c0.13,0.07,0.22,0.18,0.28,0.33c0.06,0.15,0.08,0.33,0.08,0.56c0,0.23-0.03,0.43-0.08,0.58c-0.05,0.15-0.14,0.27-0.27,0.35
				C17.7,4.78,17.52,4.82,17.28,4.82z M17.28,4.56c0.16,0,0.28-0.03,0.36-0.08c0.08-0.05,0.13-0.14,0.16-0.25
				c0.03-0.12,0.04-0.26,0.04-0.45c0-0.18-0.02-0.32-0.05-0.43c-0.03-0.11-0.09-0.18-0.17-0.23s-0.19-0.07-0.34-0.07
				c-0.14,0-0.25,0.02-0.33,0.07c-0.08,0.05-0.14,0.12-0.17,0.23c-0.03,0.11-0.05,0.25-0.05,0.43c0,0.18,0.01,0.33,0.04,0.45
				c0.03,0.11,0.08,0.2,0.16,0.25C17.01,4.53,17.12,4.56,17.28,4.56z"/>
			<path class="st12" d="M18.69,4.78V2.82h0.32v0.26c0.05-0.03,0.12-0.07,0.2-0.11s0.17-0.08,0.26-0.12
				c0.1-0.04,0.19-0.06,0.29-0.08v0.31c-0.09,0.02-0.19,0.04-0.28,0.07c-0.1,0.03-0.18,0.06-0.27,0.1c-0.08,0.03-0.15,0.06-0.2,0.09
				v1.43H18.69z"/>
			<path class="st12" d="M20.81,4.82c-0.14,0-0.26-0.02-0.34-0.06c-0.08-0.04-0.14-0.11-0.18-0.22c-0.04-0.1-0.05-0.25-0.05-0.44
				V3.08h-0.29V2.82h0.29v-0.6h0.32v0.6h0.65v0.26h-0.65v0.93c0,0.14,0.01,0.25,0.02,0.32c0.01,0.08,0.04,0.13,0.08,0.16
				c0.04,0.03,0.11,0.05,0.19,0.05c0.03,0,0.06,0,0.11,0c0.04,0,0.09-0.01,0.13-0.01s0.09-0.01,0.12-0.01l0.02,0.25
				C21.2,4.78,21.15,4.79,21.1,4.8c-0.05,0.01-0.1,0.01-0.15,0.02C20.89,4.82,20.85,4.82,20.81,4.82z"/>
			<path class="st12" d="M23.42,4.82c-0.26,0-0.46-0.03-0.61-0.1s-0.25-0.16-0.31-0.29c-0.06-0.12-0.09-0.27-0.09-0.44
				c0-0.15,0.02-0.28,0.07-0.38s0.12-0.18,0.21-0.25c0.09-0.06,0.21-0.12,0.36-0.16c-0.07-0.08-0.12-0.14-0.15-0.2
				s-0.06-0.12-0.07-0.18c-0.01-0.06-0.02-0.13-0.02-0.2c0-0.11,0.03-0.22,0.08-0.3c0.06-0.09,0.14-0.15,0.25-0.2
				s0.24-0.07,0.39-0.07c0.16,0,0.3,0.02,0.4,0.07s0.19,0.12,0.24,0.21c0.05,0.09,0.08,0.2,0.08,0.32c0,0.09-0.01,0.18-0.04,0.25
				c-0.02,0.07-0.06,0.13-0.11,0.19s-0.12,0.11-0.2,0.16c-0.08,0.05-0.17,0.1-0.28,0.15l0.61,0.58c0.02-0.04,0.03-0.1,0.05-0.18
				c0.02-0.08,0.03-0.15,0.04-0.24c0.01-0.08,0.02-0.15,0.02-0.21l0.31,0c-0.01,0.09-0.02,0.19-0.04,0.29s-0.04,0.2-0.07,0.29
				C24.52,4,24.49,4.08,24.46,4.14l0.53,0.47l-0.19,0.2l-0.5-0.43c-0.09,0.14-0.21,0.25-0.36,0.33C23.79,4.78,23.62,4.82,23.42,4.82
				z M23.39,4.54c0.15,0,0.29-0.03,0.41-0.08s0.21-0.14,0.28-0.26l-0.86-0.81c-0.12,0.03-0.21,0.07-0.28,0.12s-0.13,0.11-0.16,0.18
				c-0.03,0.07-0.05,0.16-0.05,0.27c0,0.19,0.05,0.33,0.15,0.43C22.98,4.49,23.15,4.54,23.39,4.54z M23.43,3.19
				c0.12-0.05,0.21-0.1,0.29-0.15c0.07-0.05,0.13-0.1,0.16-0.16c0.03-0.06,0.05-0.14,0.05-0.23c0-0.11-0.03-0.2-0.09-0.26
				c-0.06-0.06-0.16-0.09-0.3-0.09c-0.13,0-0.22,0.03-0.29,0.09c-0.07,0.06-0.1,0.15-0.1,0.27c0,0.05,0,0.09,0.01,0.13
				c0.01,0.04,0.02,0.08,0.04,0.11c0.02,0.04,0.05,0.08,0.09,0.12C23.31,3.07,23.36,3.12,23.43,3.19z"/>
			<path class="st12" d="M27.3,4.82c-0.21,0-0.39-0.03-0.52-0.09s-0.24-0.15-0.32-0.27c-0.08-0.12-0.13-0.26-0.16-0.44
				c-0.03-0.17-0.04-0.37-0.04-0.6c0-0.23,0.01-0.43,0.04-0.61c0.03-0.17,0.08-0.32,0.16-0.44c0.08-0.12,0.18-0.21,0.32-0.27
				s0.31-0.09,0.52-0.09c0.1,0,0.2,0,0.29,0.01c0.1,0.01,0.19,0.02,0.27,0.04c0.08,0.01,0.16,0.03,0.22,0.04l-0.01,0.26
				c-0.06-0.01-0.13-0.02-0.22-0.03c-0.09-0.01-0.18-0.02-0.27-0.03s-0.17-0.01-0.25-0.01c-0.16,0-0.28,0.02-0.38,0.07
				c-0.1,0.04-0.17,0.11-0.22,0.21s-0.09,0.21-0.11,0.35c-0.02,0.14-0.03,0.31-0.03,0.5c0,0.19,0.01,0.35,0.03,0.49
				c0.02,0.14,0.05,0.25,0.11,0.34c0.05,0.09,0.12,0.16,0.22,0.2c0.1,0.04,0.23,0.07,0.39,0.07c0.12,0,0.24-0.01,0.38-0.02
				c0.14-0.01,0.26-0.03,0.35-0.04l0.01,0.27c-0.07,0.01-0.14,0.03-0.23,0.04s-0.18,0.02-0.28,0.03C27.48,4.81,27.39,4.82,27.3,4.82
				z"/>
			<path class="st12" d="M28.57,2.39V2.04h0.32v0.35H28.57z M28.57,4.78V2.82h0.32v1.96H28.57z"/>
			<path class="st12" d="M30.17,4.82c-0.14,0-0.26-0.02-0.34-0.06c-0.08-0.04-0.14-0.11-0.18-0.22c-0.04-0.1-0.05-0.25-0.05-0.44
				V3.08h-0.29V2.82h0.29v-0.6h0.32v0.6h0.65v0.26h-0.65v0.93c0,0.14,0.01,0.25,0.02,0.32c0.01,0.08,0.04,0.13,0.08,0.16
				c0.04,0.03,0.11,0.05,0.19,0.05c0.03,0,0.06,0,0.11,0c0.04,0,0.09-0.01,0.13-0.01c0.05,0,0.09-0.01,0.12-0.01l0.02,0.25
				c-0.04,0.01-0.08,0.01-0.14,0.02c-0.05,0.01-0.1,0.01-0.15,0.02S30.21,4.82,30.17,4.82z"/>
			<path class="st12" d="M31.39,5.64l0.27-0.87h-0.31l-0.58-1.96h0.32l0.5,1.7h0.14l0.51-1.7h0.32l-0.85,2.82H31.39z"/>
			<path class="st12" d="M34.53,4.78V2.35h-0.87V2.07h2.06v0.28h-0.86v2.43H34.53z"/>
			<path class="st12" d="M36.53,4.82c-0.19,0-0.33-0.05-0.43-0.15c-0.1-0.1-0.15-0.25-0.15-0.45c0-0.13,0.02-0.23,0.07-0.31
				s0.12-0.14,0.21-0.19c0.09-0.04,0.21-0.07,0.35-0.08l0.63-0.06V3.41c0-0.13-0.03-0.23-0.09-0.28s-0.15-0.08-0.27-0.08
				c-0.07,0-0.15,0-0.25,0.01c-0.09,0-0.19,0.01-0.28,0.02c-0.09,0.01-0.18,0.02-0.25,0.02l-0.02-0.23
				c0.07-0.01,0.15-0.03,0.24-0.04c0.09-0.01,0.19-0.02,0.29-0.03c0.1-0.01,0.19-0.01,0.28-0.01c0.16,0,0.28,0.02,0.38,0.07
				c0.1,0.05,0.17,0.12,0.22,0.21s0.07,0.21,0.07,0.35V4.4c0.01,0.06,0.03,0.1,0.07,0.12c0.04,0.03,0.1,0.04,0.16,0.05l-0.01,0.24
				c-0.04,0-0.08,0-0.11,0c-0.04,0-0.07-0.01-0.1-0.01s-0.06-0.01-0.09-0.02c-0.04-0.01-0.07-0.03-0.1-0.05
				c-0.03-0.02-0.06-0.04-0.09-0.07c-0.05,0.02-0.12,0.04-0.2,0.07s-0.17,0.04-0.26,0.06C36.71,4.81,36.62,4.82,36.53,4.82z
				 M36.58,4.56c0.07,0,0.15-0.01,0.23-0.02c0.08-0.01,0.16-0.03,0.23-0.05c0.07-0.02,0.13-0.04,0.18-0.05V3.81l-0.6,0.05
				c-0.12,0.01-0.21,0.04-0.27,0.1c-0.05,0.06-0.08,0.14-0.08,0.25c0,0.11,0.03,0.2,0.08,0.26C36.41,4.53,36.48,4.56,36.58,4.56z"/>
			<path class="st12" d="M37.96,4.78L38.6,3.8l-0.64-0.98h0.35l0.49,0.76l0.49-0.76h0.35L39,3.79l0.65,0.99H39.3L38.8,4.02
				l-0.49,0.76H37.96z"/>
			<path class="st12" d="M40.05,2.39V2.04h0.32v0.35H40.05z M40.05,4.78V2.82h0.32v1.96H40.05z"/>
		</g>
		<g class="st11">
			<path class="st12" d="M14.48,9.73V8.19h0.18v1.55H14.48z"/>
			<path class="st12" d="M15.36,9.76c-0.03,0-0.08,0-0.12-0.01s-0.1-0.01-0.14-0.02C15.04,9.73,15,9.72,14.97,9.71l0.01-0.15
				c0.04,0,0.08,0.01,0.13,0.02c0.05,0.01,0.09,0.01,0.14,0.01c0.04,0,0.08,0.01,0.11,0.01c0.06,0,0.11-0.01,0.15-0.02
				c0.04-0.01,0.07-0.03,0.09-0.06s0.03-0.06,0.03-0.11c0-0.04-0.01-0.07-0.02-0.09s-0.04-0.04-0.09-0.05
				c-0.04-0.01-0.1-0.03-0.18-0.04c-0.08-0.01-0.15-0.03-0.21-0.05c-0.06-0.02-0.1-0.05-0.12-0.09c-0.03-0.04-0.04-0.1-0.04-0.17
				c0-0.08,0.02-0.15,0.06-0.2c0.04-0.05,0.09-0.08,0.15-0.1c0.06-0.02,0.13-0.03,0.19-0.03c0.04,0,0.09,0,0.14,0.01
				c0.05,0,0.1,0.01,0.15,0.02s0.09,0.01,0.12,0.02l0,0.15c-0.04-0.01-0.08-0.01-0.13-0.02c-0.05-0.01-0.1-0.01-0.14-0.01
				c-0.05,0-0.09-0.01-0.13-0.01c-0.04,0-0.08,0-0.12,0.01c-0.04,0.01-0.06,0.03-0.08,0.05s-0.03,0.06-0.03,0.1
				c0,0.03,0.01,0.06,0.02,0.08c0.01,0.02,0.04,0.04,0.08,0.05c0.04,0.01,0.1,0.03,0.18,0.04c0.09,0.02,0.17,0.03,0.22,0.06
				c0.06,0.02,0.1,0.05,0.12,0.09c0.03,0.04,0.04,0.1,0.04,0.17c0,0.09-0.02,0.16-0.05,0.21c-0.04,0.05-0.09,0.09-0.15,0.11
				C15.53,9.74,15.45,9.76,15.36,9.76z"/>
			<path class="st12" d="M16.42,9.76c-0.08,0-0.14-0.01-0.18-0.04s-0.08-0.07-0.1-0.12c-0.02-0.06-0.03-0.14-0.03-0.25V8.76h-0.16
				V8.61h0.16V8.27h0.17v0.34h0.35v0.15h-0.35V9.3c0,0.08,0,0.14,0.01,0.18c0.01,0.04,0.02,0.08,0.04,0.09
				c0.02,0.02,0.06,0.03,0.1,0.03c0.02,0,0.03,0,0.06,0c0.02,0,0.05,0,0.07-0.01c0.02,0,0.05,0,0.07-0.01l0.01,0.15
				c-0.02,0-0.05,0.01-0.07,0.01c-0.03,0-0.06,0.01-0.08,0.01C16.47,9.76,16.44,9.76,16.42,9.76z"/>
			<path class="st12" d="M17.09,9.76c-0.1,0-0.18-0.03-0.24-0.09s-0.08-0.14-0.08-0.26c0-0.07,0.01-0.13,0.04-0.18
				c0.03-0.05,0.06-0.08,0.12-0.11c0.05-0.02,0.12-0.04,0.19-0.05l0.35-0.03v-0.1c0-0.08-0.02-0.13-0.05-0.16
				c-0.03-0.03-0.08-0.05-0.15-0.05c-0.04,0-0.08,0-0.13,0c-0.05,0-0.1,0.01-0.15,0.01c-0.05,0-0.1,0.01-0.13,0.01l-0.01-0.13
				c0.04-0.01,0.08-0.02,0.13-0.02c0.05-0.01,0.1-0.01,0.16-0.02c0.06-0.01,0.11-0.01,0.15-0.01c0.09,0,0.15,0.01,0.21,0.04
				c0.05,0.03,0.09,0.07,0.12,0.12c0.02,0.05,0.04,0.12,0.04,0.2v0.57c0,0.03,0.02,0.06,0.04,0.07c0.02,0.01,0.05,0.02,0.09,0.03
				l-0.01,0.14c-0.02,0-0.04,0-0.06,0s-0.04,0-0.05-0.01c-0.02,0-0.03-0.01-0.05-0.01c-0.02-0.01-0.04-0.02-0.05-0.03
				s-0.03-0.02-0.05-0.04c-0.03,0.01-0.06,0.02-0.11,0.04c-0.04,0.01-0.09,0.02-0.14,0.03C17.18,9.75,17.13,9.76,17.09,9.76z
				 M17.11,9.61c0.04,0,0.08,0,0.13-0.01c0.04-0.01,0.08-0.02,0.12-0.03c0.04-0.01,0.07-0.02,0.1-0.03V9.18l-0.32,0.03
				c-0.07,0.01-0.12,0.03-0.14,0.06c-0.03,0.03-0.04,0.08-0.04,0.14c0,0.06,0.01,0.11,0.04,0.15C17.02,9.59,17.06,9.61,17.11,9.61z"
				/>
			<path class="st12" d="M17.96,9.73V8.61h0.17v0.08c0.03-0.02,0.06-0.03,0.1-0.04c0.04-0.01,0.08-0.03,0.12-0.04
				s0.08-0.02,0.13-0.02c0.08,0,0.14,0.01,0.19,0.03c0.05,0.02,0.09,0.05,0.12,0.1c0.03,0.04,0.05,0.1,0.06,0.17
				s0.02,0.15,0.02,0.25v0.59h-0.17V9.15c0-0.1-0.01-0.17-0.02-0.23s-0.03-0.1-0.07-0.13c-0.03-0.03-0.08-0.04-0.15-0.04
				c-0.04,0-0.08,0-0.12,0.01s-0.08,0.02-0.11,0.03c-0.03,0.01-0.06,0.02-0.08,0.04v0.9H17.96z"/>
			<path class="st12" d="M19.55,9.76c-0.03,0-0.07,0-0.12,0c-0.05,0-0.09-0.01-0.14-0.01c-0.05,0-0.09-0.01-0.12-0.01v-1.6h0.17
				v0.54c0.02-0.01,0.05-0.02,0.09-0.03c0.04-0.01,0.07-0.02,0.12-0.03s0.08-0.01,0.12-0.01c0.1,0,0.18,0.02,0.24,0.06
				s0.1,0.1,0.13,0.18c0.03,0.08,0.04,0.19,0.04,0.33c0,0.15-0.02,0.27-0.05,0.35C20,9.6,19.94,9.66,19.86,9.7
				C19.79,9.74,19.68,9.76,19.55,9.76z M19.54,9.6c0.1,0,0.18-0.02,0.23-0.05c0.05-0.03,0.08-0.08,0.1-0.14
				c0.02-0.07,0.03-0.15,0.03-0.25c0-0.1-0.01-0.17-0.02-0.23c-0.01-0.06-0.04-0.1-0.08-0.13s-0.09-0.04-0.15-0.04
				c-0.04,0-0.07,0-0.11,0.01c-0.04,0.01-0.07,0.02-0.11,0.02s-0.06,0.02-0.08,0.03v0.78c0.03,0,0.07,0.01,0.11,0.01
				C19.49,9.6,19.52,9.6,19.54,9.6z"/>
			<path class="st12" d="M20.69,9.76c-0.1,0-0.17-0.02-0.22-0.06c-0.05-0.04-0.09-0.1-0.1-0.18c-0.02-0.08-0.03-0.19-0.03-0.32V8.61
				h0.17V9.2c0,0.1,0,0.18,0.01,0.24c0.01,0.06,0.03,0.1,0.06,0.13c0.03,0.03,0.08,0.04,0.15,0.04c0.07,0,0.13-0.01,0.18-0.03
				s0.1-0.04,0.13-0.05v-0.9h0.17v1.12h-0.17V9.66c-0.05,0.03-0.1,0.05-0.16,0.07C20.83,9.75,20.77,9.76,20.69,9.76z"/>
			<path class="st12" d="M21.55,9.73v-1.6h0.17v1.6H21.55z"/>
			<path class="st12" d="M22.44,9.73l0.42-1.55h0.39l0.42,1.55H23.5l-0.11-0.39h-0.65l-0.11,0.39H22.44z M22.77,9.18h0.58
				l-0.23-0.84H23L22.77,9.18z"/>
			<path class="st12" d="M23.89,8.37v-0.2h0.17v0.2H23.89z M23.89,9.73V8.61h0.17v1.12H23.89z"/>
			<path class="st12" d="M24.38,9.73V8.61h0.17v0.15c0.03-0.02,0.06-0.04,0.11-0.06c0.04-0.02,0.09-0.04,0.14-0.07
				s0.1-0.04,0.16-0.04v0.18c-0.05,0.01-0.1,0.02-0.15,0.04s-0.1,0.04-0.14,0.05c-0.04,0.02-0.08,0.04-0.11,0.05v0.82H24.38z"/>
			<path class="st12" d="M25.16,10.23V8.61h0.17v0.08c0.02-0.02,0.05-0.03,0.09-0.05c0.04-0.02,0.08-0.03,0.12-0.04
				s0.08-0.02,0.12-0.02c0.09,0,0.17,0.02,0.23,0.06s0.1,0.1,0.13,0.18c0.03,0.08,0.04,0.19,0.04,0.32c0,0.15-0.02,0.26-0.05,0.35
				c-0.03,0.09-0.09,0.15-0.16,0.19s-0.17,0.06-0.28,0.06c-0.05,0-0.09,0-0.14-0.01c-0.05-0.01-0.08-0.01-0.11-0.02v0.5H25.16z
				 M25.57,9.6c0.08,0,0.14-0.01,0.19-0.04c0.05-0.03,0.08-0.08,0.1-0.14s0.03-0.15,0.03-0.26c0-0.15-0.02-0.26-0.07-0.32
				s-0.11-0.09-0.19-0.09c-0.04,0-0.07,0-0.11,0.01s-0.07,0.02-0.11,0.03s-0.06,0.03-0.08,0.04v0.75c0.02,0,0.06,0.01,0.1,0.01
				C25.48,9.6,25.53,9.6,25.57,9.6z"/>
			<path class="st12" d="M26.77,9.76c-0.12,0-0.22-0.02-0.29-0.06s-0.12-0.11-0.15-0.2c-0.03-0.09-0.04-0.2-0.04-0.33
				c0-0.13,0.01-0.23,0.05-0.32c0.03-0.08,0.08-0.15,0.15-0.19c0.07-0.04,0.16-0.06,0.28-0.06c0.12,0,0.21,0.02,0.28,0.06
				c0.07,0.04,0.12,0.1,0.15,0.19s0.05,0.19,0.05,0.32c0,0.13-0.01,0.25-0.04,0.33c-0.03,0.09-0.08,0.15-0.15,0.2
				S26.9,9.76,26.77,9.76z M26.77,9.61c0.09,0,0.15-0.02,0.2-0.05c0.04-0.03,0.07-0.08,0.09-0.14c0.01-0.07,0.02-0.15,0.02-0.26
				c0-0.1-0.01-0.19-0.03-0.25C27.03,8.85,27,8.81,26.96,8.78s-0.1-0.04-0.18-0.04c-0.08,0-0.14,0.01-0.18,0.04
				s-0.07,0.07-0.09,0.13c-0.02,0.06-0.03,0.14-0.03,0.25c0,0.1,0.01,0.19,0.02,0.26c0.01,0.07,0.04,0.11,0.09,0.14
				C26.62,9.59,26.69,9.61,26.77,9.61z"/>
			<path class="st12" d="M27.53,9.73V8.61h0.17v0.15c0.03-0.02,0.06-0.04,0.11-0.06c0.04-0.02,0.09-0.04,0.14-0.07
				c0.05-0.02,0.1-0.04,0.16-0.04v0.18c-0.05,0.01-0.1,0.02-0.15,0.04c-0.05,0.02-0.1,0.04-0.14,0.05
				c-0.04,0.02-0.08,0.04-0.11,0.05v0.82H27.53z"/>
			<path class="st12" d="M28.67,9.76c-0.08,0-0.14-0.01-0.18-0.04c-0.05-0.02-0.08-0.07-0.1-0.12c-0.02-0.06-0.03-0.14-0.03-0.25
				V8.76H28.2V8.61h0.16V8.27h0.17v0.34h0.35v0.15h-0.35V9.3c0,0.08,0,0.14,0.01,0.18s0.02,0.08,0.04,0.09
				c0.02,0.02,0.06,0.03,0.11,0.03c0.01,0,0.03,0,0.06,0c0.02,0,0.05,0,0.07-0.01c0.02,0,0.05,0,0.07-0.01l0.01,0.15
				c-0.02,0-0.05,0.01-0.07,0.01c-0.03,0-0.06,0.01-0.08,0.01S28.69,9.76,28.67,9.76z"/>
			<path class="st12" d="M29.57,9.02V8.75h0.19v0.26H29.57z M29.57,9.73V9.47h0.19v0.26H29.57z"/>
			<path class="st12" d="M31.2,9.73V9.45h-0.71V9.31l0.42-1.05h0.2l-0.43,1.03h0.52V8.83h0.18v0.46h0.19v0.16h-0.19v0.29H31.2z"/>
			<path class="st12" d="M32.28,9.76c-0.08,0-0.16-0.01-0.23-0.04c-0.07-0.02-0.12-0.06-0.17-0.12c-0.05-0.06-0.08-0.13-0.11-0.23
				c-0.02-0.1-0.04-0.21-0.04-0.36c0-0.15,0.01-0.28,0.04-0.38c0.02-0.1,0.06-0.18,0.11-0.24s0.1-0.1,0.17-0.13
				c0.07-0.02,0.14-0.04,0.23-0.04c0.09,0,0.17,0.01,0.23,0.04c0.07,0.03,0.12,0.07,0.17,0.13s0.08,0.14,0.1,0.24
				c0.02,0.1,0.04,0.23,0.04,0.38c0,0.19-0.02,0.34-0.06,0.44s-0.1,0.18-0.18,0.23C32.49,9.73,32.4,9.76,32.28,9.76z M32.28,9.6
				c0.06,0,0.11-0.01,0.15-0.03c0.04-0.02,0.08-0.05,0.11-0.09c0.03-0.04,0.05-0.1,0.07-0.18s0.02-0.17,0.02-0.28
				c0-0.12-0.01-0.23-0.02-0.31c-0.01-0.08-0.04-0.14-0.06-0.19c-0.03-0.05-0.07-0.08-0.11-0.1c-0.04-0.02-0.1-0.03-0.16-0.03
				c-0.06,0-0.11,0.01-0.16,0.03c-0.04,0.02-0.08,0.05-0.11,0.1c-0.03,0.05-0.05,0.11-0.07,0.19c-0.01,0.08-0.02,0.19-0.02,0.31
				c0,0.11,0.01,0.21,0.02,0.28c0.02,0.08,0.04,0.13,0.07,0.18c0.03,0.04,0.07,0.07,0.11,0.09C32.18,9.59,32.23,9.6,32.28,9.6z"/>
			<path class="st12" d="M33.47,8.89V8.75h0.96v0.14H33.47z M33.47,9.24V9.1h0.96v0.14H33.47z M34.14,9.76
				c-0.11,0-0.2-0.02-0.27-0.05c-0.07-0.03-0.13-0.08-0.17-0.15c-0.04-0.06-0.07-0.14-0.08-0.24C33.61,9.23,33.6,9.12,33.6,9
				c0-0.13,0.01-0.24,0.02-0.33s0.04-0.18,0.08-0.24c0.04-0.06,0.09-0.11,0.17-0.15c0.07-0.03,0.16-0.05,0.27-0.05
				c0.05,0,0.1,0,0.15,0.01c0.05,0,0.1,0.01,0.14,0.02c0.04,0.01,0.08,0.01,0.11,0.02l-0.01,0.14c-0.03-0.01-0.07-0.01-0.12-0.02
				s-0.09-0.01-0.14-0.01c-0.05,0-0.09-0.01-0.13-0.01c-0.08,0-0.15,0.01-0.2,0.04c-0.05,0.02-0.09,0.06-0.12,0.11
				c-0.03,0.05-0.05,0.11-0.06,0.19C33.78,8.8,33.78,8.89,33.78,9c0,0.1,0,0.19,0.01,0.27s0.03,0.14,0.05,0.19
				c0.03,0.05,0.07,0.09,0.12,0.11c0.05,0.02,0.12,0.04,0.2,0.04c0.06,0,0.12,0,0.2-0.01c0.07-0.01,0.13-0.02,0.18-0.03l0.01,0.15
				c-0.04,0.01-0.08,0.01-0.12,0.02c-0.04,0.01-0.09,0.01-0.14,0.02C34.24,9.75,34.19,9.76,34.14,9.76z"/>
			<path class="st12" d="M23,13.09c-0.03-0.05-0.05-0.11-0.08-0.18c-0.03-0.07-0.05-0.15-0.08-0.24c-0.02-0.09-0.04-0.17-0.06-0.27
				c-0.01-0.09-0.02-0.18-0.02-0.27s0.01-0.18,0.02-0.27c0.02-0.09,0.03-0.19,0.06-0.28s0.05-0.17,0.08-0.25
				c0.03-0.08,0.05-0.15,0.08-0.2h0.17c-0.02,0.06-0.05,0.13-0.07,0.21c-0.03,0.08-0.05,0.17-0.07,0.26
				c-0.02,0.09-0.04,0.18-0.05,0.27c-0.01,0.09-0.02,0.18-0.02,0.26c0,0.08,0.01,0.16,0.02,0.25c0.01,0.09,0.03,0.18,0.05,0.26
				c0.02,0.09,0.04,0.17,0.07,0.24s0.05,0.14,0.07,0.2H23z"/>
			<path class="st12" d="M23.44,12.81v-1.55h0.18v1.55H23.44z"/>
			<path class="st12" d="M24.42,12.83c-0.04,0-0.1,0-0.16-0.01c-0.06-0.01-0.12-0.01-0.18-0.02s-0.11-0.02-0.16-0.02l0.02-0.15
				c0.04,0,0.09,0.01,0.15,0.02c0.06,0.01,0.11,0.01,0.17,0.02c0.06,0,0.1,0.01,0.14,0.01c0.07,0,0.13-0.01,0.18-0.03
				c0.05-0.02,0.08-0.05,0.11-0.1c0.02-0.04,0.04-0.1,0.04-0.17c0-0.06-0.01-0.1-0.03-0.14c-0.02-0.03-0.06-0.06-0.11-0.08
				c-0.05-0.02-0.12-0.04-0.2-0.06c-0.08-0.02-0.15-0.03-0.21-0.06s-0.11-0.05-0.15-0.08c-0.04-0.03-0.07-0.07-0.09-0.12
				c-0.02-0.05-0.03-0.11-0.03-0.18c0-0.1,0.02-0.18,0.06-0.24s0.1-0.11,0.17-0.13c0.08-0.03,0.16-0.04,0.26-0.04
				c0.04,0,0.1,0,0.15,0.01c0.06,0.01,0.11,0.01,0.17,0.02c0.06,0.01,0.1,0.01,0.14,0.02l-0.02,0.15c-0.04-0.01-0.09-0.01-0.15-0.02
				c-0.06-0.01-0.11-0.01-0.16-0.01s-0.09-0.01-0.13-0.01c-0.07,0-0.13,0.01-0.18,0.03c-0.05,0.02-0.09,0.05-0.11,0.08
				s-0.04,0.08-0.04,0.14c0,0.07,0.01,0.12,0.04,0.15c0.02,0.03,0.06,0.06,0.12,0.08c0.06,0.02,0.13,0.04,0.22,0.06
				c0.08,0.02,0.14,0.04,0.2,0.06c0.06,0.02,0.1,0.05,0.14,0.08c0.04,0.03,0.06,0.07,0.08,0.11c0.02,0.05,0.03,0.1,0.03,0.17
				c0,0.11-0.02,0.21-0.06,0.28c-0.04,0.07-0.1,0.12-0.17,0.15C24.6,12.82,24.52,12.83,24.42,12.83z"/>
			<path class="st12" d="M25.52,12.81v-1.39h-0.47v-0.16h1.12v0.16H25.7v1.39H25.52z"/>
			<path class="st12" d="M26.44,13.09h-0.17c0.02-0.06,0.05-0.12,0.07-0.2s0.05-0.16,0.07-0.24c0.02-0.09,0.04-0.17,0.05-0.26
				c0.01-0.09,0.02-0.17,0.02-0.25c0-0.08-0.01-0.16-0.02-0.26c-0.01-0.09-0.03-0.18-0.05-0.27s-0.04-0.18-0.07-0.26
				c-0.03-0.08-0.05-0.15-0.07-0.21h0.17c0.03,0.06,0.05,0.12,0.08,0.2c0.03,0.08,0.05,0.16,0.08,0.25
				c0.02,0.09,0.04,0.18,0.06,0.28c0.02,0.09,0.02,0.19,0.02,0.27s-0.01,0.18-0.02,0.27c-0.01,0.09-0.03,0.18-0.06,0.27
				c-0.02,0.09-0.05,0.16-0.08,0.24S26.47,13.04,26.44,13.09z"/>
		</g>
		<g class="st11">
			<path class="st12" d="M13.18,17.94c-0.04,0-0.1,0-0.16-0.01c-0.06-0.01-0.12-0.01-0.18-0.02s-0.11-0.02-0.16-0.02l0.02-0.15
				c0.04,0,0.09,0.01,0.15,0.02c0.06,0.01,0.11,0.01,0.17,0.02c0.06,0,0.1,0.01,0.14,0.01c0.07,0,0.13-0.01,0.18-0.03
				c0.05-0.02,0.08-0.05,0.11-0.1c0.02-0.04,0.04-0.1,0.04-0.17c0-0.06-0.01-0.1-0.03-0.14c-0.02-0.03-0.06-0.06-0.11-0.08
				c-0.05-0.02-0.12-0.04-0.2-0.06c-0.08-0.02-0.15-0.03-0.21-0.06s-0.11-0.05-0.15-0.08c-0.04-0.03-0.07-0.07-0.09-0.12
				c-0.02-0.05-0.03-0.11-0.03-0.18c0-0.1,0.02-0.18,0.06-0.24s0.1-0.11,0.17-0.13c0.08-0.03,0.16-0.04,0.26-0.04
				c0.04,0,0.1,0,0.15,0.01c0.06,0.01,0.11,0.01,0.17,0.02c0.06,0.01,0.1,0.01,0.14,0.02l-0.02,0.15c-0.04-0.01-0.09-0.01-0.15-0.02
				c-0.06-0.01-0.11-0.01-0.16-0.01s-0.09-0.01-0.13-0.01c-0.07,0-0.13,0.01-0.18,0.03c-0.05,0.02-0.09,0.05-0.11,0.08
				s-0.04,0.08-0.04,0.14c0,0.07,0.01,0.12,0.04,0.15c0.02,0.03,0.06,0.06,0.12,0.08c0.06,0.02,0.13,0.04,0.22,0.06
				c0.08,0.02,0.14,0.04,0.2,0.06c0.06,0.02,0.1,0.05,0.14,0.08c0.04,0.03,0.06,0.07,0.08,0.11c0.02,0.05,0.03,0.1,0.03,0.17
				c0,0.11-0.02,0.21-0.06,0.28c-0.04,0.07-0.1,0.12-0.17,0.15C13.37,17.93,13.29,17.94,13.18,17.94z"/>
			<path class="st12" d="M14.19,17.95c-0.1,0-0.18-0.03-0.24-0.09s-0.08-0.14-0.08-0.26c0-0.07,0.01-0.13,0.04-0.18
				c0.03-0.05,0.06-0.08,0.12-0.11c0.05-0.02,0.12-0.04,0.19-0.05l0.35-0.03v-0.1c0-0.08-0.02-0.13-0.05-0.16
				c-0.03-0.03-0.08-0.05-0.15-0.05c-0.04,0-0.08,0-0.13,0c-0.05,0-0.1,0.01-0.15,0.01c-0.05,0-0.1,0.01-0.13,0.01l-0.01-0.13
				c0.04-0.01,0.08-0.02,0.13-0.02c0.05-0.01,0.1-0.01,0.16-0.02c0.06-0.01,0.11-0.01,0.15-0.01c0.09,0,0.15,0.01,0.21,0.04
				c0.05,0.03,0.09,0.07,0.12,0.12c0.02,0.05,0.04,0.12,0.04,0.2v0.57c0,0.03,0.02,0.06,0.04,0.07c0.02,0.01,0.05,0.02,0.09,0.03
				l-0.01,0.14c-0.02,0-0.04,0-0.06,0s-0.04,0-0.05-0.01c-0.02,0-0.03-0.01-0.05-0.01c-0.02-0.01-0.04-0.02-0.05-0.03
				s-0.03-0.02-0.05-0.04c-0.03,0.01-0.06,0.02-0.11,0.04c-0.04,0.01-0.09,0.02-0.14,0.03C14.29,17.94,14.24,17.95,14.19,17.95z
				 M14.22,17.8c0.04,0,0.08,0,0.13-0.01c0.04-0.01,0.08-0.02,0.12-0.03c0.04-0.01,0.07-0.02,0.1-0.03v-0.36l-0.32,0.03
				c-0.07,0.01-0.12,0.03-0.14,0.06c-0.03,0.03-0.04,0.08-0.04,0.14c0,0.06,0.01,0.11,0.04,0.15C14.12,17.78,14.17,17.8,14.22,17.8z
				"/>
			<path class="st12" d="M15.45,17.95c-0.03,0-0.07,0-0.12,0c-0.05,0-0.09-0.01-0.14-0.01c-0.05,0-0.09-0.01-0.12-0.01v-1.6h0.17
				v0.54c0.02-0.01,0.05-0.02,0.09-0.03c0.04-0.01,0.07-0.02,0.12-0.03s0.08-0.01,0.12-0.01c0.1,0,0.18,0.02,0.24,0.06
				s0.1,0.1,0.13,0.18c0.03,0.08,0.04,0.19,0.04,0.33c0,0.15-0.02,0.27-0.05,0.35c-0.03,0.09-0.09,0.15-0.16,0.19
				C15.69,17.93,15.58,17.95,15.45,17.95z M15.44,17.79c0.1,0,0.18-0.02,0.23-0.05c0.05-0.03,0.08-0.08,0.1-0.14
				c0.02-0.07,0.03-0.15,0.03-0.25c0-0.1-0.01-0.17-0.02-0.23c-0.01-0.06-0.04-0.1-0.08-0.13s-0.09-0.04-0.15-0.04
				c-0.04,0-0.07,0-0.11,0.01c-0.04,0.01-0.07,0.02-0.11,0.02s-0.06,0.02-0.08,0.03v0.78c0.03,0,0.07,0.01,0.11,0.01
				C15.39,17.79,15.42,17.79,15.44,17.79z"/>
			<path class="st12" d="M16.25,16.56v-0.2h0.17v0.2H16.25z M16.25,17.92v-1.12h0.17v1.12H16.25z"/>
			<path class="st12" d="M16.75,17.92v-1.6h0.17v0.55c0.03-0.01,0.06-0.02,0.1-0.04s0.08-0.02,0.12-0.03
				c0.04-0.01,0.08-0.01,0.12-0.01c0.08,0,0.14,0.01,0.19,0.03c0.05,0.02,0.09,0.05,0.12,0.1c0.03,0.04,0.05,0.1,0.06,0.17
				c0.01,0.07,0.02,0.15,0.02,0.25v0.59h-0.17v-0.59c0-0.1-0.01-0.17-0.02-0.23c-0.01-0.06-0.03-0.1-0.07-0.13
				c-0.03-0.03-0.08-0.04-0.15-0.04c-0.04,0-0.08,0-0.12,0.01c-0.04,0.01-0.08,0.02-0.11,0.03C16.97,16.99,16.94,17,16.92,17v0.92
				H16.75z"/>
			<path class="st12" d="M18.19,17.95c-0.1,0-0.18-0.03-0.24-0.09s-0.08-0.14-0.08-0.26c0-0.07,0.01-0.13,0.04-0.18
				c0.03-0.05,0.06-0.08,0.12-0.11c0.05-0.02,0.12-0.04,0.19-0.05l0.35-0.03v-0.1c0-0.08-0.02-0.13-0.05-0.16
				c-0.03-0.03-0.08-0.05-0.15-0.05c-0.04,0-0.08,0-0.13,0c-0.05,0-0.1,0.01-0.15,0.01c-0.05,0-0.1,0.01-0.13,0.01l-0.01-0.13
				c0.04-0.01,0.08-0.02,0.13-0.02c0.05-0.01,0.1-0.01,0.16-0.02c0.06-0.01,0.11-0.01,0.15-0.01c0.09,0,0.15,0.01,0.21,0.04
				c0.05,0.03,0.09,0.07,0.12,0.12c0.02,0.05,0.04,0.12,0.04,0.2v0.57c0,0.03,0.02,0.06,0.04,0.07c0.02,0.01,0.05,0.02,0.09,0.03
				l-0.01,0.14c-0.02,0-0.04,0-0.06,0s-0.04,0-0.05-0.01c-0.02,0-0.03-0.01-0.05-0.01c-0.02-0.01-0.04-0.02-0.05-0.03
				s-0.03-0.02-0.05-0.04c-0.03,0.01-0.06,0.02-0.11,0.04c-0.04,0.01-0.09,0.02-0.14,0.03C18.29,17.94,18.24,17.95,18.19,17.95z
				 M18.22,17.8c0.04,0,0.08,0,0.13-0.01c0.04-0.01,0.08-0.02,0.12-0.03c0.04-0.01,0.07-0.02,0.1-0.03v-0.36l-0.32,0.03
				c-0.07,0.01-0.12,0.03-0.14,0.06c-0.03,0.03-0.04,0.08-0.04,0.14c0,0.06,0.01,0.11,0.04,0.15C18.13,17.78,18.17,17.8,18.22,17.8z
				"/>
			<path class="st12" d="M20.13,17.95c-0.12,0-0.22-0.02-0.3-0.05s-0.14-0.09-0.18-0.15s-0.08-0.15-0.1-0.25
				c-0.02-0.1-0.03-0.21-0.03-0.34c0-0.13,0.01-0.24,0.03-0.34s0.05-0.18,0.1-0.25c0.05-0.07,0.11-0.12,0.18-0.15
				c0.08-0.04,0.17-0.05,0.29-0.05c0.06,0,0.12,0,0.18,0.01c0.06,0.01,0.12,0.01,0.18,0.02s0.11,0.02,0.14,0.03l-0.01,0.15
				c-0.04-0.01-0.09-0.01-0.14-0.02c-0.06-0.01-0.11-0.01-0.17-0.02c-0.06-0.01-0.11-0.01-0.16-0.01c-0.09,0-0.16,0.01-0.22,0.04
				c-0.06,0.03-0.1,0.06-0.13,0.12c-0.03,0.05-0.05,0.12-0.07,0.2c-0.01,0.08-0.02,0.18-0.02,0.29c0,0.14,0.01,0.26,0.03,0.36
				c0.02,0.09,0.06,0.16,0.13,0.21c0.06,0.05,0.15,0.07,0.27,0.07c0.03,0,0.07,0,0.11,0c0.04,0,0.08-0.01,0.11-0.01
				s0.07-0.01,0.09-0.01v-0.47h-0.25v-0.16h0.43v0.76c-0.03,0-0.06,0.01-0.1,0.02c-0.04,0.01-0.09,0.01-0.13,0.02
				c-0.05,0.01-0.1,0.01-0.14,0.01C20.21,17.95,20.17,17.95,20.13,17.95z"/>
			<path class="st12" d="M21.38,17.95c-0.12,0-0.22-0.02-0.29-0.06s-0.12-0.11-0.15-0.2c-0.03-0.09-0.04-0.2-0.04-0.33
				c0-0.13,0.02-0.23,0.05-0.32c0.03-0.08,0.08-0.15,0.15-0.19c0.07-0.04,0.16-0.06,0.28-0.06c0.12,0,0.21,0.02,0.28,0.06
				c0.07,0.04,0.12,0.1,0.15,0.19s0.05,0.19,0.05,0.32c0,0.13-0.01,0.25-0.04,0.33c-0.03,0.09-0.08,0.15-0.15,0.2
				S21.5,17.95,21.38,17.95z M21.38,17.8c0.09,0,0.15-0.02,0.19-0.05c0.04-0.03,0.07-0.08,0.09-0.14c0.01-0.07,0.02-0.15,0.02-0.26
				c0-0.1-0.01-0.19-0.03-0.25c-0.02-0.06-0.05-0.11-0.09-0.13c-0.04-0.03-0.1-0.04-0.18-0.04c-0.08,0-0.14,0.01-0.18,0.04
				s-0.08,0.07-0.09,0.13c-0.02,0.06-0.03,0.14-0.03,0.25c0,0.1,0.01,0.19,0.02,0.26c0.01,0.07,0.04,0.11,0.09,0.14
				C21.22,17.78,21.29,17.8,21.38,17.8z M21.11,16.54v-0.21h0.17v0.21H21.11z M21.56,16.54v-0.21h0.17v0.21H21.56z"/>
			<path class="st12" d="M22.13,17.92v-1.6h0.17v0.94l0.17-0.01l0.31-0.45h0.2l-0.36,0.52l0.38,0.6h-0.2l-0.33-0.52l-0.18,0.01v0.51
				H22.13z"/>
			<path class="st12" d="M23.62,17.95c-0.12,0-0.21-0.02-0.28-0.06c-0.07-0.04-0.11-0.1-0.14-0.19c-0.03-0.09-0.04-0.2-0.04-0.35
				c0-0.14,0.02-0.25,0.05-0.33c0.03-0.08,0.08-0.14,0.15-0.18c0.07-0.04,0.16-0.06,0.27-0.06c0.03,0,0.06,0,0.09,0.01
				c0.04,0,0.07,0.01,0.11,0.01c0.04,0,0.07,0.01,0.1,0.01l-0.01,0.14c-0.03,0-0.05-0.01-0.09-0.01c-0.03,0-0.06-0.01-0.1-0.01
				c-0.03,0-0.06,0-0.08,0c-0.08,0-0.15,0.01-0.2,0.04s-0.08,0.07-0.1,0.13c-0.02,0.06-0.03,0.14-0.03,0.24
				c0,0.11,0.01,0.2,0.02,0.26c0.02,0.06,0.05,0.11,0.09,0.14s0.11,0.04,0.21,0.04c0.02,0,0.05,0,0.08,0c0.03,0,0.06,0,0.1-0.01
				c0.03,0,0.06-0.01,0.09-0.01l0,0.14c-0.03,0-0.06,0.01-0.1,0.01c-0.04,0-0.08,0.01-0.11,0.01
				C23.68,17.95,23.65,17.95,23.62,17.95z M23.64,18.41c-0.04,0-0.07,0-0.11,0s-0.07-0.01-0.09-0.01l0.01-0.11c0.01,0,0.04,0,0.07,0
				c0.03,0,0.06,0,0.08,0c0.03,0,0.06-0.01,0.07-0.02s0.03-0.03,0.03-0.06c0-0.03-0.01-0.05-0.03-0.06s-0.04-0.02-0.07-0.02h-0.09
				v-0.21h0.09v0.11c0.06,0,0.1,0,0.14,0.01c0.04,0.01,0.07,0.03,0.08,0.05s0.03,0.06,0.03,0.11c0,0.07-0.02,0.12-0.06,0.16
				C23.76,18.4,23.71,18.41,23.64,18.41z"/>
			<path class="st12" d="M24.58,17.95c-0.11,0-0.2-0.02-0.27-0.06s-0.11-0.11-0.14-0.19c-0.03-0.09-0.04-0.19-0.04-0.32
				c0-0.14,0.02-0.26,0.06-0.34c0.04-0.09,0.09-0.15,0.16-0.19c0.07-0.04,0.15-0.06,0.25-0.06c0.15,0,0.26,0.04,0.34,0.12
				c0.08,0.08,0.11,0.22,0.11,0.4l-0.01,0.13h-0.74c0,0.12,0.02,0.2,0.06,0.26c0.04,0.06,0.12,0.09,0.23,0.09c0.04,0,0.09,0,0.14,0
				c0.05,0,0.1,0,0.15-0.01c0.05,0,0.09-0.01,0.13-0.01l0,0.14c-0.04,0.01-0.08,0.01-0.13,0.02c-0.05,0.01-0.1,0.01-0.16,0.01
				C24.67,17.95,24.62,17.95,24.58,17.95z M24.31,17.3h0.57c0-0.14-0.02-0.23-0.07-0.29c-0.04-0.05-0.11-0.08-0.21-0.08
				c-0.06,0-0.12,0.01-0.16,0.04c-0.04,0.02-0.08,0.06-0.1,0.12S24.31,17.21,24.31,17.3z"/>
			<path class="st12" d="M25.31,17.92v-1.12h0.17v0.08c0.03-0.02,0.06-0.03,0.09-0.04c0.04-0.01,0.08-0.03,0.12-0.04
				s0.08-0.02,0.12-0.02c0.08,0,0.14,0.01,0.19,0.03c0.05,0.02,0.09,0.05,0.12,0.1c0.03,0.04,0.05,0.1,0.06,0.17
				c0.01,0.07,0.02,0.15,0.02,0.25v0.59h-0.17v-0.59c0-0.1-0.01-0.17-0.02-0.23s-0.03-0.1-0.07-0.13c-0.03-0.03-0.08-0.04-0.15-0.04
				c-0.04,0-0.08,0-0.12,0.01c-0.04,0.01-0.08,0.02-0.11,0.03s-0.06,0.02-0.08,0.04v0.9H25.31z"/>
			<path class="st12" d="M26.9,17.92l0.42-1.55h0.39l0.42,1.55h-0.18l-0.11-0.39h-0.65l-0.11,0.39H26.9z M27.23,17.37h0.58
				l-0.23-0.84h-0.12L27.23,17.37z"/>
			<path class="st12" d="M28.34,16.56v-0.2h0.17v0.2H28.34z M28.34,17.92v-1.12h0.17v1.12H28.34z"/>
			<path class="st12" d="M28.84,17.92v-1.12h0.17v0.15c0.03-0.02,0.06-0.04,0.11-0.06c0.04-0.02,0.09-0.04,0.14-0.07
				c0.05-0.02,0.1-0.04,0.16-0.04v0.18c-0.05,0.01-0.1,0.02-0.15,0.04c-0.05,0.02-0.1,0.04-0.14,0.05
				c-0.04,0.02-0.08,0.04-0.11,0.05v0.82H28.84z"/>
			<path class="st12" d="M29.62,18.42v-1.61h0.17v0.08c0.02-0.02,0.05-0.03,0.09-0.05c0.04-0.02,0.08-0.03,0.12-0.04
				s0.08-0.02,0.12-0.02c0.09,0,0.17,0.02,0.23,0.06s0.1,0.1,0.13,0.18c0.03,0.08,0.04,0.19,0.04,0.32c0,0.15-0.02,0.26-0.05,0.35
				c-0.03,0.09-0.09,0.15-0.16,0.19s-0.17,0.06-0.28,0.06c-0.05,0-0.09,0-0.14-0.01c-0.05-0.01-0.08-0.01-0.11-0.02v0.5H29.62z
				 M30.03,17.79c0.08,0,0.14-0.01,0.19-0.04c0.05-0.03,0.08-0.08,0.1-0.14s0.03-0.15,0.03-0.26c0-0.15-0.02-0.26-0.07-0.32
				s-0.11-0.09-0.19-0.09c-0.04,0-0.07,0-0.11,0.01s-0.07,0.02-0.11,0.03s-0.06,0.03-0.08,0.04v0.75c0.02,0,0.06,0.01,0.1,0.01
				C29.94,17.79,29.99,17.79,30.03,17.79z"/>
			<path class="st12" d="M31.23,17.95c-0.12,0-0.22-0.02-0.29-0.06s-0.12-0.11-0.15-0.2c-0.03-0.09-0.04-0.2-0.04-0.33
				c0-0.13,0.01-0.23,0.05-0.32c0.03-0.08,0.08-0.15,0.15-0.19c0.07-0.04,0.16-0.06,0.28-0.06c0.12,0,0.21,0.02,0.28,0.06
				c0.07,0.04,0.12,0.1,0.15,0.19s0.05,0.19,0.05,0.32c0,0.13-0.01,0.25-0.04,0.33c-0.03,0.09-0.08,0.15-0.15,0.2
				S31.35,17.95,31.23,17.95z M31.23,17.8c0.09,0,0.15-0.02,0.2-0.05c0.04-0.03,0.07-0.08,0.09-0.14c0.01-0.07,0.02-0.15,0.02-0.26
				c0-0.1-0.01-0.19-0.03-0.25c-0.02-0.06-0.05-0.11-0.09-0.13s-0.1-0.04-0.18-0.04c-0.08,0-0.14,0.01-0.18,0.04
				s-0.07,0.07-0.09,0.13c-0.02,0.06-0.03,0.14-0.03,0.25c0,0.1,0.01,0.19,0.02,0.26c0.01,0.07,0.04,0.11,0.09,0.14
				C31.08,17.78,31.14,17.8,31.23,17.8z"/>
			<path class="st12" d="M31.98,17.92v-1.12h0.17v0.15c0.03-0.02,0.06-0.04,0.11-0.06c0.04-0.02,0.09-0.04,0.14-0.07
				c0.05-0.02,0.1-0.04,0.16-0.04v0.18c-0.05,0.01-0.1,0.02-0.15,0.04c-0.05,0.02-0.1,0.04-0.14,0.05
				c-0.04,0.02-0.08,0.04-0.11,0.05v0.82H31.98z"/>
			<path class="st12" d="M33.13,17.95c-0.08,0-0.14-0.01-0.18-0.04c-0.05-0.02-0.08-0.07-0.1-0.12c-0.02-0.06-0.03-0.14-0.03-0.25
				v-0.58h-0.16v-0.15h0.16v-0.34h0.17v0.34h0.35v0.15h-0.35v0.53c0,0.08,0,0.14,0.01,0.18s0.02,0.08,0.04,0.09
				c0.02,0.02,0.06,0.03,0.11,0.03c0.01,0,0.03,0,0.06,0c0.02,0,0.05,0,0.07-0.01c0.02,0,0.05,0,0.07-0.01l0.01,0.15
				c-0.02,0-0.05,0.01-0.07,0.01c-0.03,0-0.06,0.01-0.08,0.01S33.15,17.95,33.13,17.95z"/>
			<path class="st12" d="M34.03,17.21v-0.26h0.19v0.26H34.03z M34.03,17.92v-0.26h0.19v0.26H34.03z"/>
			<path class="st12" d="M35.66,17.92v-0.29h-0.71V17.5l0.42-1.05h0.2l-0.43,1.03h0.52v-0.46h0.18v0.46h0.19v0.16h-0.19v0.29H35.66z
				"/>
			<path class="st12" d="M36.74,17.94c-0.05,0-0.11,0-0.17-0.01c-0.06-0.01-0.12-0.02-0.18-0.03c-0.06-0.01-0.1-0.02-0.14-0.03
				l0.02-0.14c0.04,0.01,0.08,0.01,0.13,0.02c0.05,0.01,0.11,0.02,0.16,0.02c0.06,0,0.11,0.01,0.16,0.01c0.1,0,0.18-0.03,0.24-0.09
				c0.06-0.06,0.09-0.14,0.09-0.25c0-0.07-0.01-0.13-0.04-0.18s-0.06-0.07-0.11-0.09c-0.05-0.02-0.1-0.03-0.16-0.03
				c-0.04,0-0.09,0-0.13,0.01c-0.04,0.01-0.09,0.02-0.12,0.03c-0.04,0.01-0.07,0.03-0.09,0.04l-0.12-0.02l0.04-0.77h0.86v0.16h-0.71
				l-0.04,0.47c0.03-0.01,0.06-0.02,0.09-0.04c0.04-0.01,0.08-0.03,0.12-0.04c0.04-0.01,0.09-0.01,0.13-0.01
				c0.1,0,0.18,0.01,0.25,0.04c0.07,0.03,0.12,0.08,0.16,0.14s0.06,0.15,0.06,0.25c0,0.11-0.02,0.21-0.06,0.28
				c-0.04,0.08-0.1,0.13-0.17,0.17C36.94,17.93,36.85,17.94,36.74,17.94z"/>
			<path class="st12" d="M37.92,17.08v-0.14h0.96v0.14H37.92z M37.92,17.43v-0.14h0.96v0.14H37.92z M38.6,17.95
				c-0.11,0-0.2-0.02-0.27-0.05c-0.07-0.03-0.13-0.08-0.17-0.15c-0.04-0.06-0.07-0.14-0.08-0.24c-0.02-0.09-0.02-0.2-0.02-0.32
				c0-0.13,0.01-0.24,0.02-0.33s0.04-0.18,0.08-0.24c0.04-0.06,0.09-0.11,0.17-0.15c0.07-0.03,0.16-0.05,0.27-0.05
				c0.05,0,0.1,0,0.15,0.01c0.05,0,0.1,0.01,0.14,0.02c0.04,0.01,0.08,0.01,0.11,0.02L39,16.62c-0.03-0.01-0.07-0.01-0.12-0.02
				s-0.09-0.01-0.14-0.01c-0.05,0-0.09-0.01-0.13-0.01c-0.08,0-0.15,0.01-0.2,0.04c-0.05,0.02-0.09,0.06-0.12,0.11
				c-0.03,0.05-0.05,0.11-0.06,0.19c-0.01,0.08-0.01,0.17-0.01,0.27c0,0.1,0,0.19,0.01,0.27s0.03,0.14,0.05,0.19
				c0.03,0.05,0.07,0.09,0.12,0.11c0.05,0.02,0.12,0.04,0.2,0.04c0.06,0,0.12,0,0.2-0.01c0.07-0.01,0.13-0.02,0.18-0.03l0.01,0.15
				c-0.04,0.01-0.08,0.01-0.12,0.02c-0.04,0.01-0.09,0.01-0.14,0.02C38.7,17.94,38.65,17.95,38.6,17.95z"/>
			<path class="st12" d="M23.57,21.28c-0.03-0.05-0.05-0.11-0.08-0.18c-0.03-0.07-0.05-0.15-0.08-0.24
				c-0.02-0.09-0.04-0.17-0.06-0.27c-0.01-0.09-0.02-0.18-0.02-0.27s0.01-0.18,0.02-0.27c0.02-0.09,0.03-0.19,0.06-0.28
				s0.05-0.17,0.08-0.25c0.03-0.08,0.05-0.15,0.08-0.2h0.17c-0.02,0.06-0.05,0.13-0.07,0.21c-0.03,0.08-0.05,0.17-0.07,0.26
				c-0.02,0.09-0.04,0.18-0.05,0.27c-0.01,0.09-0.02,0.18-0.02,0.26c0,0.08,0.01,0.16,0.02,0.25c0.01,0.09,0.03,0.18,0.05,0.26
				c0.02,0.09,0.04,0.17,0.07,0.24s0.05,0.14,0.07,0.2H23.57z"/>
			<path class="st12" d="M24.43,21.02c-0.04,0-0.1,0-0.16-0.01C24.21,21.01,24.16,21,24.1,21s-0.11-0.02-0.16-0.02l0.02-0.15
				c0.04,0,0.09,0.01,0.15,0.02c0.06,0.01,0.11,0.01,0.17,0.02c0.06,0,0.1,0.01,0.14,0.01c0.07,0,0.13-0.01,0.18-0.03
				c0.05-0.02,0.08-0.05,0.11-0.1c0.02-0.04,0.04-0.1,0.04-0.17c0-0.06-0.01-0.1-0.03-0.14c-0.02-0.03-0.06-0.06-0.11-0.08
				c-0.05-0.02-0.12-0.04-0.2-0.06c-0.08-0.02-0.15-0.03-0.21-0.06s-0.11-0.05-0.15-0.08c-0.04-0.03-0.07-0.07-0.09-0.12
				c-0.02-0.05-0.03-0.11-0.03-0.18c0-0.1,0.02-0.18,0.06-0.24s0.1-0.11,0.17-0.13c0.08-0.03,0.16-0.04,0.26-0.04
				c0.04,0,0.1,0,0.15,0.01c0.06,0.01,0.11,0.01,0.17,0.02c0.06,0.01,0.1,0.01,0.14,0.02l-0.02,0.15c-0.04-0.01-0.09-0.01-0.15-0.02
				c-0.06-0.01-0.11-0.01-0.16-0.01s-0.09-0.01-0.13-0.01c-0.07,0-0.13,0.01-0.18,0.03c-0.05,0.02-0.09,0.05-0.11,0.08
				s-0.04,0.08-0.04,0.14c0,0.07,0.01,0.12,0.04,0.15c0.02,0.03,0.06,0.06,0.12,0.08c0.06,0.02,0.13,0.04,0.22,0.06
				c0.08,0.02,0.14,0.04,0.2,0.06c0.06,0.02,0.1,0.05,0.14,0.08c0.04,0.03,0.06,0.07,0.08,0.11c0.02,0.05,0.03,0.1,0.03,0.17
				c0,0.11-0.02,0.21-0.06,0.28c-0.04,0.07-0.1,0.12-0.17,0.15C24.62,21.01,24.53,21.02,24.43,21.02z"/>
			<path class="st12" d="M25.08,21l0.42-1.55h0.39L26.32,21h-0.18l-0.11-0.39h-0.65L25.26,21H25.08z M25.41,20.45h0.58l-0.23-0.84
				h-0.12L25.41,20.45z"/>
			<path class="st12" d="M26.75,21l-0.31-1.55h0.19l0.26,1.39h0.06l0.31-1.38h0.21l0.31,1.38h0.06l0.26-1.39h0.19L27.97,21h-0.32
				l-0.31-1.39h0.03L27.07,21H26.75z"/>
			<path class="st12" d="M28.6,21.28h-0.17c0.02-0.06,0.05-0.12,0.07-0.2s0.05-0.16,0.07-0.24c0.02-0.09,0.04-0.17,0.05-0.26
				c0.01-0.09,0.02-0.17,0.02-0.25c0-0.08-0.01-0.16-0.02-0.26c-0.01-0.09-0.03-0.18-0.05-0.27s-0.04-0.18-0.07-0.26
				c-0.03-0.08-0.05-0.15-0.07-0.21h0.17c0.03,0.06,0.05,0.12,0.08,0.2c0.03,0.08,0.05,0.16,0.08,0.25
				c0.02,0.09,0.04,0.18,0.06,0.28c0.02,0.09,0.02,0.19,0.02,0.27s-0.01,0.18-0.02,0.27c-0.01,0.09-0.03,0.18-0.06,0.27
				c-0.02,0.09-0.05,0.16-0.08,0.24S28.63,21.23,28.6,21.28z"/>
		</g>
	</g>
</g>
</svg>
